<?xml version="1.0" standalone="no"?>
<!DOCTYPE svg PUBLIC "-//W3C//DTD SVG 20010904//EN"
 "http://www.w3.org/TR/2001/REC-SVG-20010904/DTD/svg10.dtd">
<svg version="1.0" xmlns="http://www.w3.org/2000/svg"
 width="510.000000pt" height="254.000000pt" viewBox="0 0 510.000000 254.000000"
 preserveAspectRatio="xMidYMid meet">
<metadata>
Created by potrace 1.13, written by Peter Selinger 2001-2015
</metadata>
<g transform="translate(0.000000,254.000000) scale(0.100000,-0.100000)"
fill="#000000" stroke="none">
<path d="M0 2461 l0 -80 33 -4 32 -4 -32 -1 -33 -2 0 -1185 0 -1185 2540 0
2540 0 0 1046 0 1045 -22 -3 c-24 -3 -29 -17 -35 -105 -3 -41 -1 -63 6 -63 6
0 8 -7 5 -15 -4 -8 -12 -15 -18 -15 -7 0 -13 -7 -13 -15 0 -8 3 -15 7 -15 3 0
6 -9 7 -20 1 -11 -3 -20 -9 -20 -6 0 -8 -10 -4 -24 4 -15 1 -26 -7 -29 -9 -3
-9 -7 2 -20 12 -15 11 -17 -3 -17 -14 0 -15 -4 -6 -20 6 -12 7 -20 1 -20 -5 0
-12 6 -14 13 -4 8 -6 7 -6 -4 -1 -8 5 -21 12 -28 10 -10 9 -12 -3 -9 -10 2
-14 -3 -12 -16 2 -12 -1 -15 -8 -11 -9 6 -9 2 -1 -12 12 -24 5 -34 -17 -26
-12 5 -14 2 -9 -11 4 -9 0 -28 -9 -42 -9 -13 -12 -24 -8 -24 5 0 4 -4 -1 -8
-6 -4 -16 -19 -24 -34 -8 -15 -18 -25 -23 -22 -4 3 -8 -4 -8 -14 0 -11 -7 -22
-15 -26 -8 -3 -15 -12 -15 -20 0 -9 -11 -23 -25 -32 -14 -9 -23 -19 -21 -22 7
-6 -15 -26 -36 -35 -10 -3 -18 -11 -18 -17 0 -6 -18 -30 -40 -52 -22 -23 -40
-45 -40 -49 0 -4 -13 -10 -30 -14 -16 -4 -30 -11 -30 -15 0 -5 -6 -7 -14 -4
-9 3 -17 -3 -21 -15 -5 -16 -15 -21 -41 -21 -19 0 -34 -4 -34 -9 0 -6 -27 -18
-60 -27 -33 -9 -60 -21 -60 -26 0 -5 -9 -4 -21 2 -24 14 -40 4 -19 -11 11 -8
9 -9 -10 -4 -14 4 -29 11 -35 16 -15 15 -25 10 -18 -8 5 -13 2 -15 -11 -10
-10 4 -20 7 -22 7 -3 0 -3 3 0 8 2 4 -16 7 -40 6 -24 -1 -47 2 -50 7 -9 15
-66 10 -86 -8 -12 -11 -18 -12 -18 -3 0 6 -6 10 -14 7 -8 -3 -17 2 -21 11 -6
16 -7 16 -20 -1 -7 -10 -16 -14 -19 -8 -7 10 -24 10 -43 -2 -9 -6 -11 -3 -6 9
4 12 3 15 -5 10 -12 -7 -89 11 -109 27 -9 6 -13 5 -13 -2 0 -8 -6 -7 -16 3
-18 18 -28 21 -19 5 5 -7 1 -8 -11 -1 -36 19 -79 35 -86 34 -5 -1 -8 3 -8 8 0
6 -9 10 -20 10 -11 0 -20 7 -20 16 0 8 -4 13 -9 10 -5 -3 -11 1 -15 9 -3 8
-14 15 -26 15 -11 0 -25 9 -32 19 -6 10 -18 17 -25 14 -7 -3 -13 -1 -13 5 0 6
6 13 13 15 6 3 0 6 -15 6 -16 1 -28 7 -28 14 0 12 -59 70 -70 69 -3 0 -4 6 -2
15 2 8 -1 12 -7 8 -7 -3 -11 3 -12 17 0 13 -3 18 -5 12 -3 -7 -13 -10 -23 -7
-11 3 -29 -1 -42 -8 -17 -9 -24 -9 -27 0 -2 6 -8 9 -13 6 -5 -4 -6 0 -3 8 5
15 -22 44 -32 34 -4 -3 3 -22 14 -41 19 -33 19 -46 0 -46 -5 0 -6 5 -3 10 3 6
2 10 -4 10 -6 0 -18 15 -27 33 -10 17 -19 26 -21 20 -3 -7 5 -28 16 -47 24
-39 26 -46 8 -46 -7 0 -21 14 -31 31 -10 18 -26 39 -35 49 -9 9 -21 25 -27 35
-10 18 -14 18 -54 6 -31 -9 -40 -15 -31 -24 6 -6 11 -18 11 -27 -1 -9 -6 -6
-15 10 -13 23 -12 27 7 41 11 9 18 21 14 28 -4 6 -3 11 3 11 5 0 11 -4 13 -10
2 -6 9 -5 18 1 11 8 12 12 2 16 -6 2 -10 9 -6 14 3 5 1 9 -5 9 -5 0 -9 15 -8
33 1 17 -2 42 -6 55 -6 16 -5 22 6 22 8 0 20 -13 26 -30 14 -41 25 -38 17 4
-7 39 8 58 19 23 4 -12 7 -26 6 -30 -1 -5 4 -7 11 -4 13 4 14 17 7 46 -2 8 8
21 22 28 32 16 64 50 37 41 -14 -6 -16 0 -14 42 2 27 -1 47 -6 44 -4 -3 -7 6
-6 20 1 15 5 26 9 26 3 0 6 7 6 14 0 12 -5 13 -20 4 -14 -7 -17 -7 -13 1 4 6
1 11 -6 11 -8 1 -6 6 6 15 19 15 19 16 -6 19 -6 0 -13 7 -16 14 -2 7 2 10 12
6 19 -7 37 34 30 68 -11 58 -14 119 -4 113 12 -8 13 -3 1 29 -7 17 -7 26 2 29
30 11 -12 18 -168 28 -130 9 -169 9 -175 -1 -5 -8 -9 -7 -13 4 -5 13 -22 16
-76 16 -38 0 -138 4 -223 10 -258 16 -308 19 -453 26 -77 3 -149 8 -160 9 -11
2 -55 4 -98 4 -47 1 -76 5 -72 11 3 5 11 7 18 5 7 -2 75 -6 152 -10 77 -3 210
-10 295 -15 123 -7 426 -22 450 -22 21 0 29 4 33 20 4 13 5 11 6 -5 1 -21 6
-23 64 -23 34 -1 87 -3 117 -5 163 -12 300 -14 300 -4 0 5 5 7 10 4 6 -3 10 1
10 9 0 12 11 16 44 16 l43 0 6 47 c3 27 12 52 21 59 10 6 19 25 22 40 7 39 32
76 46 68 7 -4 8 -3 4 5 -4 6 -1 23 8 36 9 13 16 27 16 30 0 3 -105 5 -233 5
-232 0 -234 0 -246 -22 l-11 -23 6 23 5 22 -1460 0 -1461 0 0 -79z m1030
-1473 c0 -5 7 -8 16 -8 8 0 30 -11 47 -24 18 -13 42 -27 54 -30 12 -4 25 -16
28 -27 4 -10 13 -19 20 -19 9 0 12 -6 8 -16 -4 -10 1 -17 16 -21 11 -3 21 -12
21 -19 0 -8 5 -14 11 -14 5 0 8 -4 4 -10 -10 -16 7 -60 24 -60 13 -1 13 -2 -3
-11 -15 -9 -16 -13 -5 -20 10 -6 11 -9 2 -9 -8 0 -13 -14 -13 -38 0 -21 -6
-47 -14 -58 -9 -11 -12 -30 -9 -46 4 -21 2 -28 -10 -28 -20 0 -39 -33 -31 -54
9 -24 -15 -49 -32 -35 -12 9 -14 1 -14 -47 0 -62 -12 -64 -28 -4 -6 23 -14 34
-23 31 -56 -16 -79 -28 -79 -38 0 -16 -3 -16 -52 -1 -31 9 -41 9 -47 -1 -8
-13 -61 -5 -61 8 0 12 -51 32 -62 25 -6 -4 -8 -2 -4 4 3 6 -3 13 -14 17 -26 8
-132 128 -120 135 5 3 2 19 -7 35 -17 32 -26 135 -12 135 5 0 9 10 9 23 0 12
11 41 25 65 13 23 22 49 19 57 -4 9 0 15 10 15 9 0 24 9 34 21 34 41 143 76
234 75 32 0 58 -4 58 -8z"/>
<path d="M881 969 c-160 -32 -258 -203 -206 -360 13 -37 33 -69 69 -105 175
-174 469 -54 469 191 0 175 -162 309 -332 274z"/>
<path d="M3489 2507 c-70 -87 -142 -219 -150 -277 -4 -23 -1 -25 51 -32 30 -3
80 -6 110 -7 l55 -1 30 63 c43 89 158 203 254 250 l74 37 -199 -1 -199 0 -26
-32z"/>
<path d="M3901 2515 c-123 -45 -236 -145 -299 -262 l-32 -61 31 -6 c17 -3 73
-6 124 -6 79 0 94 3 110 20 10 11 24 20 32 20 7 0 30 11 51 23 20 13 55 30 77
38 22 7 45 17 52 22 6 4 14 50 18 105 4 53 9 105 11 115 8 26 -94 22 -175 -8z"/>
<path d="M4211 2518 c0 -13 -3 -70 -6 -128 l-7 -105 38 -17 c22 -10 67 -40
102 -68 51 -42 67 -50 85 -43 35 13 137 77 137 86 0 4 -4 5 -10 2 -6 -3 -7 1
-4 10 6 14 8 14 19 -1 25 -35 27 7 2 49 -52 89 -168 178 -282 217 -73 25 -75
25 -74 -2z"/>
<path d="M4361 2503 c72 -36 183 -133 236 -208 17 -24 23 -28 34 -17 7 6 19
12 26 12 18 0 5 -27 -17 -33 -17 -4 -17 -7 3 -65 l21 -60 60 -6 c32 -3 83 -6
113 -6 l54 0 -7 38 c-10 56 -48 147 -61 147 -7 0 -19 9 -28 20 -15 19 -15 19
-9 -7 7 -32 -11 -38 -31 -11 -10 13 -16 14 -26 7 -8 -6 -23 -14 -34 -17 -14
-5 -11 0 10 18 30 25 30 25 13 55 -15 27 -16 32 -2 37 8 3 16 4 18 2 1 -2 10
-15 19 -29 12 -17 17 -20 17 -8 0 8 -7 21 -16 29 -10 8 -13 21 -9 36 3 14 1
23 -6 23 -7 0 -10 3 -6 6 3 3 -5 18 -19 32 -13 15 -24 30 -24 34 0 5 -91 8
-201 8 l-202 0 74 -37z"/>
<path d="M5030 2500 c0 -6 7 -25 16 -43 9 -17 13 -33 8 -34 -42 -15 -89 -52
-95 -76 -4 -16 -3 -25 2 -21 9 5 13 -8 9 -40 -1 -12 3 -16 10 -11 9 5 10 1 5
-15 -5 -17 -4 -21 6 -15 8 5 11 5 7 0 -4 -4 -18 -13 -30 -19 -13 -6 -24 -21
-26 -32 -2 -17 4 -23 30 -29 18 -4 36 -7 40 -7 4 1 5 -10 2 -23 -4 -23 -1 -25
31 -25 l35 0 0 183 c-1 135 -4 186 -14 200 -15 19 -36 23 -36 7z"/>
<path d="M3310 2108 c-21 -123 4 -358 37 -358 7 0 18 -11 23 -25 13 -35 24
-31 17 8 -5 28 -5 29 5 10 7 -14 20 -23 35 -23 13 0 23 -6 23 -14 0 -24 18
-28 50 -11 32 17 35 22 21 44 -11 16 8 41 26 34 6 -2 24 2 40 11 l28 15 -31
-5 -32 -6 -16 70 c-19 86 -20 178 -2 253 l13 57 -36 6 c-20 3 -70 6 -113 6
l-76 0 -12 -72z"/>
<path d="M3549 2119 c-25 -103 -9 -299 24 -299 7 0 53 20 104 44 l91 45 1 75
c0 41 8 95 17 121 8 26 14 48 12 50 -2 2 -55 7 -119 10 l-116 7 -14 -53z"/>
<path d="M3876 2128 c-33 -51 -47 -101 -45 -164 1 -35 4 -64 5 -64 18 0 114
58 114 68 0 8 6 12 15 8 25 -9 43 4 50 35 4 16 18 37 31 45 14 9 24 26 23 38
0 11 -3 15 -6 9 -7 -19 -22 -16 -19 4 2 9 11 20 21 23 25 9 -39 20 -117 20
-49 0 -60 -3 -72 -22z"/>
<path d="M4427 2078 c10 -53 6 -174 -7 -198 -7 -13 -4 -22 13 -37 29 -26 157
-113 167 -113 13 0 50 112 59 179 5 36 6 95 3 131 l-7 65 -50 7 c-27 3 -81 7
-118 7 l-69 1 9 -42z"/>
<path d="M4678 2026 c5 -101 -9 -188 -45 -268 l-25 -57 -76 51 c-58 39 -71 45
-56 25 10 -14 31 -31 47 -38 15 -6 27 -14 27 -18 0 -3 16 -17 35 -30 39 -26
42 -36 19 -62 -21 -23 -37 -16 -143 56 -45 31 -84 55 -86 53 -2 -2 34 -30 81
-62 46 -32 84 -62 84 -65 0 -12 -72 -76 -122 -110 -161 -108 -400 -121 -576
-32 -79 40 -149 97 -199 163 -24 30 -43 57 -43 60 0 3 25 16 55 29 30 13 55
27 55 31 0 3 -29 -8 -64 -25 -38 -18 -62 -35 -58 -41 3 -6 7 -16 8 -22 3 -18
-35 -4 -47 17 -9 18 -12 18 -40 4 -27 -14 -29 -20 -25 -54 3 -30 1 -38 -13
-38 -9 0 -22 4 -29 10 -17 14 3 -41 24 -64 8 -9 12 -23 8 -32 -12 -33 159
-182 276 -239 117 -58 214 -80 353 -80 222 0 404 78 572 247 66 66 90 99 133
185 68 135 82 188 89 341 7 148 19 134 -128 144 l-95 7 4 -86z"/>
<path d="M4350 2070 c0 -5 -7 -7 -15 -4 -20 8 -85 -36 -85 -57 0 -19 -26 -33
-35 -19 -4 6 -1 10 6 10 7 0 10 2 7 5 -10 11 -38 -8 -38 -25 0 -23 29 -35 36
-15 8 19 24 19 24 0 0 -8 -4 -15 -10 -15 -21 0 -8 -16 41 -49 66 -45 64 -48
84 119 4 28 3 31 -5 15 -9 -16 -9 -14 -5 13 2 17 2 32 0 32 -3 0 -5 -4 -5 -10z"/>
<path d="M4022 1903 c-9 -4 -10 -8 -2 -18 15 -18 -6 -31 -24 -16 -9 8 -28 5
-69 -12 l-57 -23 38 -39 c93 -96 237 -109 346 -31 l46 32 -30 22 c-16 12 -33
22 -38 22 -5 0 -15 7 -22 15 -7 9 -19 14 -27 11 -7 -3 -13 1 -13 8 0 19 -23
26 -63 19 -19 -3 -43 -1 -53 5 -11 5 -25 7 -32 5z"/>
<path d="M3718 1727 l-88 -42 38 -50 c65 -86 179 -160 295 -191 61 -16 192
-18 268 -4 70 13 183 70 243 123 l48 42 -96 63 c-53 34 -99 62 -102 62 -3 0
-20 -11 -37 -24 -46 -33 -150 -60 -208 -52 -71 10 -127 32 -173 70 -63 51 -87
52 -188 3z"/>
</g>
</svg>
